<svg xmlns="http://www.w3.org/2000/svg" version="1.1" xmlns:xlink="http://www.w3.org/1999/xlink" width="841.89" height="841.89"><svg id="SvgjsSvg1001" data-name="Слой 1" xmlns="http://www.w3.org/2000/svg" viewBox="0 0 841.89 841.89">
  <defs>
    <style>
      .cls-1 {
        stroke-width: 0px;
      }
    </style>
  </defs>
  <path class="cls-1" d="M524.95,370h-19.13l-14.95,51.84h19.01c2.73,0,4.58-.4,5.57-1.22.98-.81,1.85-2.5,2.6-5.08l11.42-39.19c.8-2.74.93-4.48.39-5.23-.54-.75-2.17-1.13-4.92-1.13Z"></path>
  <path class="cls-1" d="M387.24,376.36c.75-2.74.85-4.48.3-5.23-.55-.75-2.19-1.13-4.94-1.13h-12.75c-2.61,0-4.42.38-5.45,1.13-1.03.75-1.91,2.5-2.65,5.23l-20.86,76.98-3.43,12.67c-.69,2.54-.74,4.21-.14,5.01.59.8,2.18,1.2,4.75,1.2h12.59c2.71,0,4.54-.4,5.51-1.2.96-.8,1.79-2.47,2.49-5.01l4.84-17.65,19.74-72.01Z"></path>
  <path class="cls-1" d="M237.78,370h-19.13l-13.13,51.84h19.01c2.73,0,4.57-.4,5.53-1.22.96-.81,1.77-2.5,2.43-5.08l10.05-39.19c.7-2.74.77-4.48.21-5.23-.56-.75-2.21-1.13-4.96-1.13Z"></path>
  <path class="cls-1" d="M0,0v841.89h841.89V0H0ZM137.43,484.03h-42.8l30.48-126.17h14.01l-27.83,114.37h29.05l-2.91,11.8ZM238.72,429.84c-3.33,2.63-7.72,3.95-13.16,3.95h-23.07l-12.73,50.24h-13.79l28.7-114.04h0l3.05-12.14h37.29c5.49,0,9.23,1.34,11.22,4.02,1.99,2.67,2.27,6.75.86,12.23l-11.28,43.68c-1.4,5.41-3.76,9.43-7.1,12.06ZM309.71,427.82c-2.6,2.04-5.83,3.28-9.67,3.74l5.15,52.48h-15.01l-4.67-52.27h-12.06l-13.69,52.27h-13.79l32.84-126.17h37.29c5.49,0,9.22,1.34,11.19,4.02,1.96,2.67,2.21,6.75.75,12.23l-11.11,41.65c-1.45,5.42-3.85,9.44-7.2,12.07ZM375.87,468.22c-1.47,5.35-3.89,9.31-7.24,11.91-3.35,2.6-7.74,3.9-13.14,3.9h-20.69c-5.41,0-9.08-1.3-11.02-3.9-1.94-2.6-2.19-6.57-.75-11.91l3.3-12.25h0l22.05-81.87c1.47-5.48,3.91-9.56,7.31-12.23,3.4-2.68,7.85-4.02,13.34-4.02h21.01c5.49,0,9.21,1.34,11.15,4.02,1.94,2.67,2.15,6.75.64,12.23l-22.53,81.67h0l-3.43,12.45ZM455.36,429.54l-11,38.68c-1.52,5.35-3.97,9.31-7.35,11.91-3.37,2.6-7.77,3.9-13.17,3.9h-17.65c-5.41,0-9.07-1.3-10.98-3.9-1.92-2.6-2.13-6.57-.64-11.91l5.37-19.29h14.06l-4.78,17.09c-.71,2.54-.77,4.21-.19,5.01.59.8,2.17,1.2,4.74,1.2h9.14c2.71,0,4.55-.4,5.52-1.2.97-.8,1.82-2.47,2.53-5.01l9.68-34.25c.76-2.7.87-4.42.34-5.16-.54-.74-2.17-1.12-4.89-1.12h-13.89c-5.45,0-9.13-1.32-11.05-3.95-1.92-2.64-2.13-6.66-.63-12.08l9.83-35.35c1.52-5.48,4-9.56,7.42-12.23,3.42-2.68,7.88-4.02,13.38-4.02h18.13c5.49,0,9.2,1.34,11.12,4.02,1.92,2.67,2.1,6.75.54,12.23l-5.59,19.65h-14.15l4.91-17.4c.77-2.74.89-4.48.35-5.23-.54-.75-2.18-1.13-4.93-1.13h-9.46c-2.61,0-4.43.38-5.46,1.13-1.03.75-1.93,2.5-2.7,5.23l-8.63,30.85c-.72,2.58-.79,4.27-.2,5.08.59.81,2.18,1.22,4.78,1.22h13.91c5.45,0,9.14,1.32,11.05,3.96,1.91,2.64,2.1,6.66.56,12.06ZM523.79,429.84c-3.42,2.63-7.86,3.95-13.3,3.95h-23.07l-14.49,50.24h-13.79l32.69-114.04h0l3.48-12.14h37.29c5.49,0,9.19,1.34,11.08,4.02,1.89,2.67,2.04,6.75.43,12.23l-12.81,43.68c-1.59,5.41-4.09,9.43-7.52,12.06ZM588.07,424.88h-27.38l-14.07,47.35h34.74l-3.56,11.8h-48.69l37.26-126.17h48l-3.66,12.14h-33.74l-12.75,42.91h27.42l-3.6,11.97ZM593.02,484.03l38.26-126.17h14.01l-38.48,126.17h-13.79ZM634.4,484.03l-7.25-61.99,46.57-64.19h15.25l-47.3,64.19,7.75,61.99h-15.01ZM743.41,370h-20.57l-35.9,114.04h-13.79l35.71-114.04h-20.57l3.77-12.14h55.21l-3.85,12.14Z"></path>
  <path class="cls-1" d="M308.75,370h-19.13l-13.05,49.82h19.01c2.73,0,4.57-.41,5.54-1.22.96-.81,1.79-2.5,2.47-5.08l9.85-37.16c.73-2.74.81-4.48.26-5.23-.56-.75-2.2-1.13-4.95-1.13Z"></path>
</svg><style>@media (prefers-color-scheme: light) { :root { filter: none; } }
@media (prefers-color-scheme: dark) { :root { filter: none; } }
</style></svg>