<svg xmlns="http://www.w3.org/2000/svg" version="1.1" xmlns:xlink="http://www.w3.org/1999/xlink" width="841.89" height="595.28"><svg id="SvgjsSvg1006" data-name="Слой 1" xmlns="http://www.w3.org/2000/svg" viewBox="0 0 841.89 595.28">
  <defs>
    <style>
      .cls-1 {
        stroke-width: 0px;
      }
    </style>
  </defs>
  <polygon class="cls-1" points="653.35 309.23 697.79 309.23 673.96 252.55 653.35 309.23"></polygon>
  <path class="cls-1" d="M0,0v595.28h841.89V0H0ZM169.86,363.66c-8.88,8.52-20.61,12.77-35.21,12.77s-29.77-2.93-45.51-8.8c-.72-2.15-1.72-7.48-3.01-16-1.29-8.51-2.22-15.71-2.79-21.58l9.88-1.5c5.72,24.76,18.96,37.14,39.72,37.14,9.88,0,17.5-2.5,22.86-7.51,5.37-5.01,8.05-11.09,8.05-18.25s-2.61-13.27-7.84-18.36c-5.23-5.08-11.59-9.48-19.11-13.2-7.51-3.72-15.03-7.58-22.54-11.59-7.51-4.01-13.89-9.34-19.11-15.99-5.23-6.66-7.84-14.42-7.84-23.29,0-12.74,4.58-22.36,13.74-28.88,9.16-6.51,20.04-9.77,32.63-9.77,16.17,0,30.06,2.72,41.65,8.16,1,2.15,1.5,7.77,1.5,16.85s-.29,15.92-.86,20.5l-6.66-.43c-.57-10.02-4.05-18.36-10.41-25.01-6.37-6.66-14.99-9.98-25.87-9.98-7.73,0-14.06,1.97-19,5.9-4.94,3.94-7.41,9.41-7.41,16.42,0,8.3,5.08,15.53,15.24,21.68,4.43,2.72,9.37,5.44,14.81,8.16,5.44,2.72,10.87,5.62,16.32,8.7,5.44,3.08,10.38,6.48,14.81,10.2,10.16,8.3,15.24,18.86,15.24,31.67s-4.44,23.47-13.31,31.99ZM321.01,355.93c-3.72,11.95-6.37,17.93-7.94,17.93l-54.75.43c-3.72,0-14.6-.14-32.63-.43l-23.83.64-1.72-9.45c8.01-.86,12.91-1.68,14.71-2.47,1.79-.79,2.82-2.75,3.11-5.9v-118.08c0-3.01-1-5.01-3.01-6.01-2-1-6.66-1.79-13.95-2.36l-1.93-9.45,26.84.64h34.56l53.03.22c1,2.15,1.5,6.94,1.5,14.38s-.36,15.1-1.07,22.97l-6.87-.64c-1.72-10.16-4.87-17.28-9.45-21.36-4.58-4.08-11.52-6.12-20.82-6.12l-24.26.22c-10.02.43-15.03,1.58-15.03,3.43v53.67c0,1.43.71,2.15,2.15,2.15h34.14c3.44,0,5.76-1.61,6.98-4.83,1.21-3.22,1.82-9.19,1.82-17.93l7.08-1.07-.43,28.55.43,26.41-7.08,1.07c0-8.44-.5-13.88-1.5-16.32-1-2.43-3.43-3.65-7.3-3.65h-34.14c-1.43,0-2.15.64-2.15,1.93v45.08c0,6.3,1.29,10.27,3.87,11.92,2.58,1.65,8.23,2.47,16.96,2.47h20.82c10.87,0,19.39-2.54,25.55-7.62,6.15-5.08,11.02-12.91,14.6-23.51l7.3,1.29c0,2.58-1.86,9.84-5.58,21.79ZM434.58,294.52c-10.73,7.23-24.55,10.84-41.44,10.84-4.01,0-7.08-.36-9.23-1.07-1.72-1.43-2.58-3.86-2.58-7.3,0-.86.21-1.5.64-1.93,1.29.43,4.08.64,8.37.64,12.31,0,22.04-3.08,29.2-9.23,7.15-6.15,10.73-14.56,10.73-25.23s-3.29-18.43-9.88-23.29c-6.59-4.86-15.39-7.3-26.41-7.3-9.31,0-14.57.4-15.78,1.18-1.22.79-1.83,1.61-1.83,2.47v120.44c0,4.3,1.47,7.08,4.4,8.37,2.93,1.29,9.12,1.93,18.57,1.93l2.15,9.23-29.63-.43c-1.86,0-12.24.21-31.13.64l-1.72-9.45c8.01-.86,12.91-1.68,14.71-2.47,1.79-.79,2.82-2.75,3.11-5.9v-118.08c0-2.86-1.04-4.83-3.11-5.9-2.08-1.07-6.55-1.9-13.42-2.47l-1.93-9.45,26.41.64c18.89-.57,29.63-.86,32.2-.86,16.17,0,29.16,3.22,38.97,9.66,9.8,6.44,14.71,16.96,14.71,31.56s-5.37,25.51-16.1,32.74ZM502.85,362.69c2,1,6.44,1.79,13.31,2.36l1.93,9.45-27.05-.64c-.15,0-9.66.21-28.55.64l-1.72-9.45c9.02-.86,14.53-1.68,16.53-2.47,2-.79,3.01-2.75,3.01-5.9v-118.08c0-3.01-1-5.01-3.01-6.01-2-1-6.44-1.79-13.31-2.36l-1.93-9.45,27.05.64c.14,0,9.66-.21,28.55-.64l1.72,9.45c-9.02.86-14.53,1.68-16.53,2.47-2.01.79-3.01,2.76-3.01,5.9v118.08c0,3.01,1,5.01,3.01,6.01ZM578.64,362.69c2,1,6.44,1.79,13.31,2.36l1.93,9.45-27.05-.64c-.15,0-9.66.21-28.55.64l-1.72-9.45c9.02-.86,14.53-1.68,16.53-2.47,2-.79,3.01-2.75,3.01-5.9v-118.08c0-3.01-1-5.01-3.01-6.01-2-1-6.44-1.79-13.31-2.36l-1.93-9.45,27.05.64c.14,0,9.66-.21,28.55-.64l1.72,9.45c-9.02.86-14.53,1.68-16.53,2.47-2.01.79-3.01,2.76-3.01,5.9v118.08c0,3.01,1,5.01,3.01,6.01ZM728.38,372.78c-8.95,0-17.64.36-26.09,1.07l-1.93-9.23h.86c11.31-.14,16.96-2.15,16.96-6.01,0-1.86-5.15-14.6-15.46-38.22h-53.46l-10.52,29.2c-.43,1.72-.64,3.22-.64,4.51,0,3.01,1.36,5.3,4.08,6.87,2.72,1.58,7.37,2.58,13.95,3.01l2.58,9.88-29.41-.86-22.33.86-2.15-9.88h1.29c6.58-.71,11.63-2.54,15.14-5.47,3.5-2.93,6.47-7.76,8.91-14.49l45.52-122.59h10.31l50.67,126.03c3.01,7.01,5.69,11.59,8.05,13.74,2.36,2.15,6.19,3.22,11.49,3.22l2.36,9.45c-11.16-.71-21.22-1.07-30.16-1.07Z"></path>
</svg><style>@media (prefers-color-scheme: light) { :root { filter: none; } }
@media (prefers-color-scheme: dark) { :root { filter: none; } }
</style></svg>